HIERARCHY
ROOT simHips
{
  OFFSET 86.679 99.8409 17.6524
  CHANNELS 6 Xposition Yposition Zposition Zrotation Xrotation Yrotation
  JOINT simSpine
  {
    OFFSET -0.000355721 21.3001 -0.016921
    CHANNELS 3 Zrotation Xrotation Yrotation
    JOINT simLeftArm
    {
      OFFSET 13.5181 21.3012 0
      CHANNELS 3 Zrotation Xrotation Yrotation
      JOINT simLeftForeArm
      {
        OFFSET 24.5783 0 0
        CHANNELS 3 Zrotation Xrotation Yrotation
        JOINT simLeftHand
        {
          OFFSET 24.5783 0 0
          CHANNELS 3 Zrotation Xrotation Yrotation
          End Site
          {
            OFFSET 7.32568 1.52588e-05 0.0169305
          }
        }
      }
    }
    JOINT simHead
    {
      OFFSET 0 27.4458 -0.00489235
      CHANNELS 3 Zrotation Xrotation Yrotation
      End Site
      {
        OFFSET 0 0 0
      }
    }
    JOINT simRightArm
    {
      OFFSET -13.5174 21.3012 0
      CHANNELS 3 Zrotation Xrotation Yrotation
      JOINT simRightForeArm
      {
        OFFSET -24.5783 0 0
        CHANNELS 3 Zrotation Xrotation Yrotation
        JOINT simRightHand
        {
          OFFSET -24.5783 0 0
          CHANNELS 3 Zrotation Xrotation Yrotation
          End Site
          {
            OFFSET -7.32568 1.52588e-05 0.0169305
          }
        }
      }
    }
  }
  JOINT simRightUpLeg
  {
    OFFSET -8.44614 -9.41038 0.835684
    CHANNELS 3 Zrotation Xrotation Yrotation
    JOINT simRightLeg
    {
      OFFSET 0 -40.9639 0
      CHANNELS 3 Zrotation Xrotation Yrotation
      JOINT simRightFoot
      {
        OFFSET 0 -40.9639 0
        CHANNELS 3 Zrotation Xrotation Yrotation
        End Site
        {
          OFFSET 0.50614 -9.67405 14.6709
        }
      }
    }
  }
  JOINT simLeftUpLeg
  {
    OFFSET 8.44614 -9.41038 0.835684
    CHANNELS 3 Zrotation Xrotation Yrotation
    JOINT simLeftLeg
    {
      OFFSET 0 -40.9639 0
      CHANNELS 3 Zrotation Xrotation Yrotation
      JOINT simLeftFoot
      {
        OFFSET 0 -40.9639 0
        CHANNELS 3 Zrotation Xrotation Yrotation
        End Site
        {
          OFFSET -0.50614 -9.67405 14.6709
        }
      }
    }
  }
}
MOTION
Frames:	29
Frame Time:	0.0333333
-98.3655 93.4036 76.1534 16.4018 9.21502 -162.902 -24.0981 7.66232 4.43387 -7.26519 27.5887 -110.844 26.9221 -19.5779 -88.7324 48.9287 36.9714 -13.5421 -31.3944 -17.7512 35.4916 63.1595 4.8675 45.0872 -24.6782 -40.1138 107.728 -25.7249 -33.3502 -4.75524 -10.193 3.51341 -6.98146 8.89398 41.5013 -3.50755 15.5949 14.6932 -12.4962 24.9004 -22.9584 8.17862 -27.8864 53.3264 14.6178 15.8869 -19.792 24.905 
-102.512 93.4739 77.5447 19.0463 10.7761 -166.785 -28.8003 7.44585 9.42054 -6.09584 23.9585 -108.013 26.6216 -18.1872 -85.323 54.6622 41.6383 -22.3648 -32.7947 -6.24452 48.6195 64.6396 1.57655 37.4294 -24.4482 -40.5081 108.737 -23.8601 -30.2285 1.64652 -5.59963 4.2125 -8.60778 10.509 46.331 -4.71019 15.5752 13.8855 -11.3397 25.2723 -22.7779 5.73841 -31.4639 56.3209 17.5879 15.4707 -18.0063 24.4101 
-107.528 92.2714 79.3066 22.1551 11.363 -172.583 -31.588 5.78936 13.0005 -6.92353 23.111 -104.147 26.075 -16.3149 -80.6825 67.8514 41.0257 -33.2329 -39.3757 2.35758 60.8921 65.282 3.56451 33.4031 -24.8109 -39.8841 107.148 -17.9553 -34.6494 1.89181 -5.04446 3.12569 -12.2462 13.215 52.7898 -6.86855 17.0781 16.094 -11.3096 26.0025 -23.5412 5.45592 -37.8325 60.4763 23.0507 14.7089 -17.4718 24.1019 
-113.08 89.5558 81.3156 25.5671 12.0338 -178.096 -32.483 5.24355 16.5424 -11.0174 26.5309 -102.339 25.2449 -14.1842 -75.2761 87.5836 42.7652 -47.6286 -46.0262 1.63487 64.2081 62.574 6.5873 28.059 -25.5795 -38.259 103.176 -19.3587 -37.2549 -1.31492 -7.37903 1.78733 -16.4445 18.2481 60.9859 -11.1234 21.1585 16.3839 -15.0905 26.7499 -25.6126 6.77046 -49.3323 65.4184 33.3956 17.3999 -16.14 26.0479 
-118.594 85.5027 83.5897 29.2409 11.8995 178.155 -32.3458 7.05652 18.598 -14.3569 29.5451 -100.892 24.4174 -12.4974 -70.8492 110.923 41.5146 -65.7544 -45.5818 -13.0111 57.439 62.0074 5.06512 19.8348 -25.8464 -37.5942 101.611 -15.5029 -35.3674 -0.404312 -10.3973 -0.521642 -19.6156 28.6679 70.0418 -20.7647 21.7132 16.0084 -16.4597 29.4779 -30.0231 12.4244 -68.0078 69.4923 50.7575 20.6385 -13.9383 29.8823 
-124.153 80.2495 86.0025 33.1315 11.8384 176.271 -30.5471 10.6112 19.6524 -15.9581 30.5947 -97.4569 24.0919 -11.9118 -69.2716 132.196 34.247 -81.2582 -41.0827 -30.5339 49.2538 61.1073 2.43656 11.542 -25.3218 -38.8405 104.572 -22.5952 -31.7292 22.9862 -13.5041 -2.04889 -22.0935 46.4132 76.4184 -37.9029 22.0088 18.5665 -15.7329 32.4818 -34.2422 19.9678 -87.9396 70.8594 69.6211 26.1517 -11.6497 34.0822 
-129.956 74.2742 88.4302 35.8287 13.5147 173.536 -29.5682 14.5418 21.7614 -17.1542 30.1112 -88.5438 24.1401 -11.9964 -69.5009 146.153 24.73 -87.3414 -31.5821 -39.98 43.6175 59.2875 1.60334 5.71019 -25.1356 -39.2322 105.528 -16.0806 -29.3442 23.8792 -18.2693 -2.8152 -20.8968 72.5166 79.561 -63.5083 22.5036 18.8184 -14.5362 32.5735 -33.3832 28.0407 -99.7033 70.6072 80.9107 35.687 -9.52925 34.0925 
-136.322 67.1107 91.2894 39.7527 13.9432 170.115 -25.4705 17.3467 19.723 -23.3583 28.1483 -70.2023 24.1946 -12.0925 -69.7608 164.215 17.6139 -89.0703 -21.0928 -37.5853 40.2376 52.6514 6.80043 9.00846 -26.1553 -36.7256 99.611 -12.6232 -32.6282 22.6784 -22.0094 -7.03812 -18.2949 102.181 79.7873 -92.8238 17.6144 12.4735 -10.2163 32.9923 -31.9827 37.5034 -108.791 69.853 89.8072 48.9083 -5.18973 24.6389 
-143.524 58.8453 94.3269 43.8117 12.5725 165.348 -20.2332 18.781 14.7765 -26.7207 25.9818 -46.6509 24.3502 -12.3718 -70.513 153.639 32.9114 -68.5648 -15.3905 -27.0784 33.0735 38.4235 11.2299 20.2678 -27.1774 -31.5085 88.4006 -16.4958 -31.6717 23.885 -26.3763 -14.7174 -17.2193 112.876 79.1771 -103.445 12.1436 7.11145 -5.4409 38.5483 -32.8889 51.0631 -125.289 66.9473 104.867 40.3359 -8.38598 7.7849 
-151.406 49.9841 97.2229 45.8206 11.4172 160.759 -18.1742 20.3743 11.3767 -31.6661 22.9662 -25.5567 23.4019 -10.7776 -66.1426 127.519 39.9443 -38.3281 -10.5375 -14.4535 22.0135 22.0735 8.68245 28.201 -26.9765 -26.0411 77.4861 -16.5083 -29.9755 27.74 -32.9674 -21.9474 -18.3582 100.893 79.8458 -91.6864 10.3906 8.18037 -6.77874 49.9695 -30.1406 64.0406 -130.185 65.4294 108.988 -22.31 -1.32336 -7.71293 
-158.703 40.5414 100.021 47.2472 7.85119 158.12 -16.8787 20.5202 10.0223 -34.5328 20.0489 -13.7576 21.1958 -7.86237 -57.502 92.4739 32.872 -8.45209 -3.15671 -4.68369 7.67954 10.4975 2.03138 24.1054 -26.2228 -22.4322 70.411 -13.984 -28.2458 32.1976 -39.7528 -29.222 -23.6217 71.6915 79.5302 -62.8796 12.5577 8.30126 -4.3874 53.3549 -32.5276 73.1289 -127.134 66.3176 106.187 -32.0281 5.42735 -11.1952 
-166.024 30.8684 103.329 51.3524 8.28099 156.643 -15.9923 27.2551 12.9513 -41.6428 13.5847 -9.8583 20.2239 -6.82292 -54.1281 82.1189 45.6655 -2.60642 5.6216 -1.09158 -7.24985 3.15646 -5.04378 9.78386 -25.6511 -20.6163 66.8212 -16.0464 -32.7941 30.5198 -40.869 -34.1107 -18.8809 54.6915 77.8579 -45.8365 25.0644 7.49616 1.29946 41.4935 -63.6637 46.555 -127.467 66.2375 105.771 -43.8826 -7.09104 0.363289 
-173.452 20.5231 106.35 62.4868 12.8847 151.706 -12.5072 39.6935 18.7421 -51.9583 7.59059 -11.6657 24.6504 -12.9408 -72.0282 -139.588 -39.8738 -136.841 9.41173 1.87922 -17.0281 -2.00825 -9.70117 -4.96234 -25.2808 -19.6023 64.7951 -15.9492 -35.3286 27.6503 -34.15 -33.2902 -9.47691 37.9956 74.1285 -29.5831 24.2317 4.76356 -1.59653 25.0605 -64.3829 30.1882 -126.159 66.6286 104.534 -40.5024 -15.1799 10.9742 
-180.579 10.8534 109.362 75.8595 9.23284 145.944 -4.14036 43.561 14.4114 -81.3685 4.89979 -17.7568 25.9472 -15.9503 -79.7692 -143.018 -32.473 -125.697 7.85395 13.6367 -15.3232 1.05243 -9.67369 -3.75634 -24.8765 -18.6067 62.7855 -18.1611 -37.1815 24.9393 -22.8404 -35.7331 -7.78041 26.2545 68.5245 -18.7163 10.6066 0.955432 -5.71645 39.2044 -55.216 46.1096 -119.58 68.1609 98.9429 -22.0335 1.14644 0.677251 
-186.191 8.38183 110.35 91.2138 8.75844 137.566 -7.9484 45.2656 12.0302 -88.5056 -0.285304 -13.9582 26.3828 -17.2971 -83.1262 -152 -28.7706 -145.514 0.833682 36.4185 0.760188 25.5935 -0.280406 10.9901 -25.1919 -19.3761 64.3406 -14.3454 -37.6117 29.7285 -8.23976 -26.9258 -3.25602 19.4325 62.4458 -12.4528 9.59035 3.7273 -5.26052 38.6544 -45.3306 31.7597 -115.726 68.8214 95.4953 -19.4466 8.41113 -6.82769 
-190.473 9.63018 110.217 103.669 6.50734 135.816 -6.00804 40.2409 4.05621 -84.7666 -1.32871 -13.5547 23.7216 -11.2912 -67.5734 -139.168 62.6099 163.825 -22.1568 46.2268 24.5684 47.4217 20.1619 7.5107 -25.606 -20.4845 66.5587 -14.1299 -33.8412 28.9612 -3.80027 -17.9732 -11.8797 19.2453 62.2032 -12.1291 17.0583 10.7378 -2.19709 15.114 -43.2945 -14.0598 -106.456 69.9827 86.3783 -34.3281 1.8699 8.05834 
-194.944 9.82102 111.395 107.855 3.91567 134.588 -7.51854 34.0552 4.35076 -84.6725 -1.19133 -14.967 21.5214 -8.24239 -58.6907 -122.872 79.6619 142.767 -18.2756 36.4848 23.2949 62.9579 21.3495 -11.1919 -26.7085 -24.4832 74.4343 -9.54503 -35.6436 27.5138 -6.65222 -19.4735 -14.7025 23.6601 66.5339 -16.1453 20.4025 16.7977 -4.41927 36.4348 -35.943 11.4105 -101.689 70.3822 82.3178 -17.4439 10.5586 2.26327 
-198.766 9.91408 113.098 110.984 2.2612 128.148 -11.6929 34.7545 0.352622 -75.559 -8.03444 -14.0323 21.0415 -7.69064 -56.9582 -59.09 85.8584 80.0213 -17.239 6.81585 31.9686 66.5889 18.506 -22.2499 -27.1871 -31.3702 88.1174 -3.76471 -36.6859 29.5528 -8.44905 -24.0448 -8.19289 35.5729 73.2743 -27.5087 17.3671 14.9314 -4.07919 39.8715 -32.768 14.9752 -102.251 70.3474 82.8415 -17.6444 8.83741 -0.20443 
-201.745 9.17973 114.625 114.288 2.88477 122.337 -16.8736 37.8698 0.0701303 -67.1453 -12.095 -11.0318 20.813 -7.43934 -56.1525 18.309 25.9058 -0.441303 -7.53371 -13.7538 28.5303 58.7017 6.52865 -34.7297 -26.5585 -35.3458 96.5281 -4.61825 -42.1059 28.8064 -14.4973 -27.7675 -3.8661 68.3226 79.3028 -59.5475 12.8353 9.46049 3.51678 40.5029 -31.9467 16.5149 -109.186 69.705 89.4389 -17.4003 12.306 -3.30574 
-204.183 8.87 116.613 117.788 1.62242 118.768 -19.6035 38.594 1.50798 -61.5603 -19.5666 -8.1293 22.4225 -9.37442 -62.1104 12.3504 83.8756 10.5179 3.19832 -34.059 20.3896 49.6535 -3.70687 -41.8414 -26.9689 -33.3344 92.1971 -6.365 -44.4204 21.9198 -19.6446 -32.2893 -1.99101 120.333 78.4343 -110.69 13.1219 5.39038 7.77853 45.9707 -34.8709 19.095 -121.206 67.7702 100.612 -18.5358 11.8009 -5.40654 
-206.897 8.80387 118.602 119.117 -0.989256 115.164 -24.5335 36.9067 -0.121139 -54.6412 -30.518 -3.07843 22.4158 -9.36541 -62.0838 6.97203 82.2797 18.6618 16.9499 -36.2844 16.4545 46.7383 -13.8725 -26.7959 -27.192 -28.1441 81.6309 -3.83787 -40.6988 24.3438 -25.3111 -38.5448 -1.52605 144.833 72.8487 -134.496 11.3511 5.06303 9.86087 55.0003 -38.8554 25.7924 -128.737 65.8563 107.486 -18.9457 10.7728 -6.28697 
-209.276 8.62204 120.743 121.561 -3.99913 112.389 -26.0524 36.9814 0.414084 -48.1792 -36.0376 0.421114 20.6392 -7.25275 -55.5476 22.2935 16.3773 1.46726 18.4568 -25.6623 8.28294 48.7914 -18.0654 -16.0961 -27.132 -27.3667 80.0938 -18.272 -49.9531 14.2457 -30.1827 -42.5305 -1.40551 155.15 66.9754 -144.162 9.47253 3.14001 9.81563 65.88 -42.1742 32.7688 -131.794 64.8749 110.245 -19.489 11.9396 -5.96986 
-211.911 8.4146 123.167 121.47 -6.85383 110.102 -27.1603 35.0588 1.48375 -40.5014 -40.6072 1.7214 18.468 -5.26784 -48.6419 22.9694 15.4423 1.7076 15.3382 -20.354 0.4678 53.3865 -23.8307 -13.8177 -27.241 -29.4691 84.2699 -2.70395 -41.0396 27.2686 -36.9977 -47.4154 -2.59361 160.149 62.1825 -148.597 8.41637 0.80396 8.53545 77.5098 -45.554 43.3441 -128.375 65.9944 107.115 -19.5703 11.9954 -6.4617 
-215.126 7.63657 125.226 117.865 -10.111 108.422 -27.2773 33.462 0.782896 -32.1739 -41.8345 1.99647 15.7364 -3.24495 -40.333 24.5713 12.209 3.13306 10.358 -14.8033 -7.33626 62.7487 -27.7682 -7.58804 -27.2037 -31.102 87.5693 -12.9494 -45.6948 21.1883 -48.7893 -52.7555 -9.71492 161.843 60.1044 -150.106 4.62915 1.19493 7.09965 89.4067 -49.425 57.9935 -115.421 68.9179 95.1162 -17.8308 11.7404 -8.1618 
-219.1 5.09906 128.002 122.824 -4.94123 109.921 -42.6065 43.5288 9.02116 -23.1934 -44.9839 1.99112 14.4402 -2.49947 -36.7081 23.4098 16.1661 1.92407 25.5812 -31.0295 -6.06769 73.2844 -28.082 -0.962052 -27.2101 -30.985 87.3307 -15.7445 -50.0228 18.8563 -55.7756 -47.2146 -5.77119 161.713 60.3526 -150.05 2.01468 1.12358 3.86497 76.1097 -52.3331 51.6796 -85.4893 70.7849 66.9116 -16.602 11.7006 -7.15016 
-221.319 4.39126 129.476 123.314 -8.43413 109.32 -42.6066 44.4559 9.19644 -14.6423 -44.4367 7.04624 12.7421 -1.67779 -32.1103 21.3278 18.6674 -0.416117 28.2084 -34.0157 -5.5642 77.8602 -26.029 3.47958 -27.2098 -30.9908 87.3425 -9.75202 -43.9494 25.1199 -62.3186 -47.5558 -9.64824 162.576 59.2035 -150.78 0.351787 0.740846 3.16756 83.4831 -52.9825 63.6884 -68.6161 69.5526 51.0056 -15.7443 13.3166 -4.65295 
-222.886 4.3333 130.352 123.723 -12.4746 109.634 -38.2225 45.2413 8.34027 -11.3076 -47.7833 8.48466 13.0211 -1.80154 -32.856 -5.6622 85.3189 28.3055 21.1246 -28.1051 -11.1156 80.575 -25.378 5.42584 -27.1696 -31.609 88.6068 -11.0164 -42.2573 24.5699 -69.471 -45.8096 -15.4388 163.517 57.8401 -151.521 -0.0555381 1.08589 3.84506 89.6204 -53.8085 76.1196 -56.7084 67.452 39.8832 -15.5092 14.0399 -1.84443 
-224.092 4.29158 131.178 125.324 -16.1804 109.732 -35.7333 45.6283 8.44672 -8.87754 -49.1795 10.8369 10.5868 -0.863275 -26.4665 17.2184 21.658 0.703654 21.9992 -29.7348 -10.7366 82.4063 -23.8102 6.60362 -27.1667 -31.6453 88.6815 -13.5854 -41.8358 22.2803 -71.8596 -43.8359 -17.4461 164.37 56.5125 -152.159 -0.278401 -2.43407 3.37349 91.2811 -53.4447 85.1607 -47.9227 64.9353 31.807 -16.2484 13.6137 -1.80736 
-225.205 4.35589 131.971 127.547 -19.8814 110.921 -33.7243 45.7696 6.56973 -3.51653 -51.5898 17.3202 10.5081 -0.83807 -26.2632 18.0534 19.0479 2.60993 30.8648 -39.747 -4.29576 83.3461 -21.6316 7.36195 -27.2228 -30.7069 86.7655 -13.0027 -40.0473 24.8993 -72.757 -42.8705 -19.0863 165.29 54.8222 -152.891 0.128815 4.78873 3.64045 90.3885 -53.7864 91.0479 -42.5596 62.8191 26.9492 -17.9416 12.7131 -4.34279 
